<?xml version="1.0" standalone="no"?>
<!DOCTYPE svg PUBLIC "-//W3C//DTD SVG 20010904//EN"
 "http://www.w3.org/TR/2001/REC-SVG-20010904/DTD/svg10.dtd">
<svg version="1.0" xmlns="http://www.w3.org/2000/svg"
 width="1011.000000pt" height="1280.000000pt" viewBox="0 0 1011.000000 1280.000000"
 preserveAspectRatio="xMidYMid meet">
<g transform="translate(0.000000,1280.000000) scale(0.100000,-0.100000)"
fill="#000000" stroke="none">
<path d="M4030 12775 c-311 -67 -497 -207 -608 -455 -134 -302 -133 -735 4
-1061 103 -246 307 -433 559 -512 262 -82 547 -46 782 99 173 107 291 298 350
566 25 117 25 436 0 558 -68 327 -214 552 -448 691 -92 55 -175 85 -311 114
-141 30 -190 30 -328 0z"/>
<path d="M6453 12515 c-187 -41 -394 -214 -487 -408 -55 -115 -78 -220 -83
-387 -12 -353 105 -662 313 -834 228 -188 539 -239 768 -125 170 84 326 260
387 435 122 352 38 829 -189 1075 -183 198 -468 296 -709 244z"/>
<path d="M1430 12280 c-115 -16 -294 -67 -406 -114 -207 -87 -369 -198 -534
-365 -135 -136 -223 -261 -309 -436 -94 -189 -123 -287 -170 -576 -14 -82 -14
-178 -2 -250 6 -30 17 -97 27 -149 51 -290 186 -544 399 -748 240 -231 522
-356 860 -382 782 -60 1519 506 1696 1302 26 118 37 407 20 530 -83 582 -491
1032 -1059 1164 -87 20 -140 26 -282 29 -96 2 -204 0 -240 -5z"/>
<path d="M8183 11306 c-180 -44 -306 -182 -365 -401 -28 -106 -30 -316 -5
-420 32 -126 80 -210 176 -305 140 -139 287 -207 466 -217 291 -17 483 157
541 490 41 233 -19 471 -158 622 -176 192 -436 284 -655 231z"/>
<path d="M5065 10663 c-609 -49 -1076 -171 -1515 -394 -427 -217 -766 -574
-1014 -1069 -212 -425 -316 -857 -316 -1320 0 -567 165 -1015 487 -1321 232
-220 510 -338 893 -379 229 -25 517 -89 735 -163 537 -184 932 -473 1145 -837
182 -312 250 -725 180 -1093 -51 -265 -188 -568 -511 -1127 -358 -620 -405
-704 -491 -874 -106 -211 -145 -299 -203 -462 -69 -194 -90 -303 -90 -479 0
-84 6 -176 13 -210 107 -494 502 -817 1102 -899 63 -9 145 -21 183 -26 85 -13
225 -13 319 -1 40 6 120 15 178 21 236 25 543 87 716 145 591 197 1124 762
1575 1665 457 917 805 2181 948 3445 49 427 55 552 56 1030 0 482 -2 523 -51
840 -176 1149 -448 1800 -974 2325 -281 281 -577 485 -1015 700 -595 292
-1049 424 -1635 475 -146 13 -593 18 -715 8z"/>
<path d="M9516 10139 c-168 -42 -344 -211 -425 -408 -67 -160 -86 -377 -47
-526 38 -145 136 -288 240 -349 173 -101 387 -65 558 93 150 139 246 350 265
587 5 56 -25 212 -56 294 -47 124 -137 227 -245 280 -57 29 -78 33 -159 36
-50 2 -110 -1 -131 -7z"/>
</g>
</svg>
