<?xml version="1.0" encoding="UTF-8" standalone="no"?>
<!DOCTYPE svg PUBLIC "-//W3C//DTD SVG 1.1//EN" "http://www.w3.org/Graphics/SVG/1.1/DTD/svg11.dtd">
<svg version="1.1" xmlns="http://www.w3.org/2000/svg" xmlns:xlink="http://www.w3.org/1999/xlink" preserveAspectRatio="xMidYMid meet" viewBox="0 0 519 380" width="519" height="380"><defs><path d="M359.88 372.24C359.88 463.4 280.61 537.41 182.97 537.41C85.33 537.41 6.06 463.4 6.06 372.24C6.06 281.07 85.33 207.06 182.97 207.06C280.61 207.06 359.88 281.07 359.88 372.24Z" id="b1OQn4uxLK"></path><path d="M481.59 245.18C470.12 288.36 425.75 314.11 382.57 302.64C339.39 291.17 313.64 246.8 325.11 203.62C336.59 160.43 380.96 134.69 424.14 146.16C467.32 157.63 493.06 202 481.59 245.18Z" id="b7fCA1GkAz"></path><path d="M519 383.56C519 447.39 467.18 499.21 403.35 499.21C339.53 499.21 287.71 447.39 287.71 383.56C287.71 319.73 339.53 267.91 403.35 267.91C467.18 267.91 519 319.73 519 383.56Z" id="a9PiS1WjOn"></path><path d="M292.64 123.83C292.64 187.66 240.82 239.48 176.99 239.48C113.17 239.48 61.35 187.66 61.35 123.83C61.35 60.01 113.17 8.19 176.99 8.19C240.82 8.19 292.64 60.01 292.64 123.83Z" id="g1x0a9JTo7"></path></defs><g><g><g><use xlink:href="#b1OQn4uxLK" opacity="1" fill="#785bf3" fill-opacity="1"></use></g><g><use xlink:href="#b7fCA1GkAz" opacity="1" fill="#2de080" fill-opacity="1"></use></g><g><use xlink:href="#a9PiS1WjOn" opacity="1" fill="#2de080" fill-opacity="1"></use></g><g><use xlink:href="#g1x0a9JTo7" opacity="1" fill="#785bf3" fill-opacity="1"></use></g></g></g></svg>